<?xml version="1.0" standalone="no"?>
<!DOCTYPE svg PUBLIC "-//W3C//DTD SVG 1.1//EN" "http://www.w3.org/Graphics/SVG/1.1/DTD/svg11.dtd" >
<svg xmlns="http://www.w3.org/2000/svg">
<metadata></metadata>
<defs>
<font id="trade_gothic_lt_std_lightIt" horiz-adv-x="1138" >
<font-face units-per-em="2048" ascent="1479" descent="-569" />
<missing-glyph horiz-adv-x="569" />
<glyph unicode="&#xfb01;" horiz-adv-x="1024" d="M197 0l215 967h-176l20 98h176l35 152q32 141 107.5 211.5t209.5 70.5q41 0 131 -16l-24 -103q-61 21 -115 21q-74 0 -118.5 -40t-65.5 -130l-37 -166h217l-20 -98h-217l-216 -967h-122zM735 0l236 1065h123l-236 -1065h-123zM1024 1298l39 181h123l-39 -181h-123z" />
<glyph unicode="&#xfb02;" horiz-adv-x="1024" d="M197 0l215 967h-176l20 98h176l35 152q32 141 107.5 211.5t209.5 70.5q41 0 131 -16l-24 -103q-61 21 -115 21q-74 0 -118.5 -40t-65.5 -130l-37 -166h217l-20 -98h-217l-216 -967h-122zM735 0l328 1479h123l-328 -1479h-123z" />
<glyph horiz-adv-x="2048" />
<glyph horiz-adv-x="2048" />
<glyph unicode="&#xd;" horiz-adv-x="2048" />
<glyph unicode=" "  horiz-adv-x="569" />
<glyph unicode="&#x09;" horiz-adv-x="569" />
<glyph unicode="&#xa0;" horiz-adv-x="569" />
<glyph unicode="!" horiz-adv-x="454" d="M139 0l41 184h176l-41 -184h-176zM276 455l191 1024h176l-264 -1024h-103z" />
<glyph unicode="&#x22;" horiz-adv-x="681" d="M401 1016l103 463h102l-102 -463h-103zM629 1016l102 463h103l-103 -463h-102z" />
<glyph unicode="#" d="M158 481l22 99h254l119 321h-242l21 98h254l174 480h102l-174 -480h301l174 480h103l-174 -480h217l-21 -98h-231l-117 -321h217l-22 -99h-232l-174 -481h-100l174 481h-303l-174 -481h-101l174 481h-241zM537 580h301l118 321h-303z" />
<glyph unicode="$" d="M125 299l113 68q26 -117 106.5 -193t200.5 -76l133 609q-43 13 -78.5 26.5t-75 33.5t-67.5 43t-54.5 53.5t-38 65t-17 79t8.5 94.5q40 179 176 276.5t318 100.5l33 143h98l-33 -143q130 -6 222 -79t112 -163q-1 0 -49 -33t-55 -37q-59 187 -252 211l-127 -577 q35 -11 65 -21.5t63.5 -25t61 -30t54.5 -35.5t47 -42.5t36 -50.5t24 -59.5t8 -69.5t-9 -80q-26 -121 -110 -210.5t-192 -132.5t-226 -44l-54 -244h-98l53 244q-150 6 -257 84.5t-140 214.5zM462.5 1041.5q4.5 -32.5 12 -57.5t27.5 -46.5t40 -37.5t49.5 -29.5t56 -23 t59.5 -18.5l120 551q-123 0 -227 -74t-131 -194q-11 -38 -6.5 -70.5zM643 98q130 2 249 86.5t146 206.5q14 62 -1 109t-65.5 82t-84.5 51t-105 43q-7 3 -10 4z" />
<glyph unicode="%" horiz-adv-x="1820" d="M420 -20l1204 1519h109l-1207 -1519h-106zM422 1143q31 138 151 237t258 99t216 -99t47 -237t-152.5 -237t-259.5 -99t-214.5 99t-45.5 237zM520 1143q-23 -98 31.5 -168t153.5 -70t184.5 70t105.5 168q23 98 -32 167.5t-154 69.5t-184 -69.5t-105 -167.5zM1055 336 q31 138 152 237t259 99t214.5 -99t45.5 -237t-151 -237t-258 -99t-215.5 99t-46.5 237zM1153 336q-23 -98 32 -168t154 -70q98 0 183.5 70t105.5 168q25 98 -30 167.5t-154 69.5q-98 0 -183.5 -69.5t-107.5 -167.5z" />
<glyph unicode="&#x26;" horiz-adv-x="1366" d="M167.5 192.5q-19.5 71.5 0.5 167.5q24 108 78 188t137 144.5t233 153.5q-80 171 -41 344q32 146 131 227.5t240 81.5q129 0 196 -76t38 -206q-9 -42 -28 -81.5t-39 -70t-55 -65.5t-59 -56t-71 -54t-70.5 -48.5t-75.5 -48.5q19 -39 69 -151.5t88.5 -185.5t82.5 -134 q154 177 235 374l123 -24q-106 -240 -284 -436q96 -126 225 -134l-27 -122q-186 9 -309 161q-101 -77 -220.5 -119t-236.5 -42q-88 0 -161.5 23.5t-126.5 70.5t-72.5 118.5zM301 352q-14 -63 2 -114t54 -82.5t90 -48.5t112 -17q196 0 361 143q-55 64 -138 226.5t-127 277.5 q-75 -37 -127.5 -71t-100.5 -79t-79 -103.5t-47 -131.5zM707 1176q-31 -149 30 -271q117 57 203 144t107 176q16 73 -16.5 118.5t-115.5 45.5q-159 0 -208 -213z" />
<glyph unicode="'" horiz-adv-x="454" d="M401 1016l103 463h102l-102 -463h-103z" />
<glyph unicode="(" horiz-adv-x="681" d="M264 243q-24 228 23 423q46 207 167.5 428t299.5 405h147q-193 -181 -318.5 -401t-172.5 -432q-28 -140 -30 -279.5t37 -286t115 -268.5h-147q-97 183 -121 411z" />
<glyph unicode=")" horiz-adv-x="681" d="M76 -168q193 181 318.5 401.5t172.5 432.5q28 140 29.5 279t-37.5 285.5t-115 268.5h148q97 -183 121 -410.5t-23 -422.5q-46 -208 -167.5 -429t-299.5 -405h-147z" />
<glyph unicode="*" horiz-adv-x="1024" d="M442 1188l60 106l248 -104l36 289h111l-86 -289l291 108l8 -102l-301 -70l139 -211l-106 -71l-82 254l-201 -254l-78 61l240 221z" />
<glyph unicode="+" horiz-adv-x="1228" d="M188 477l25 111h477l105 477h110l-104 -477h477l-25 -111h-477l-106 -477h-111l107 477h-478z" />
<glyph unicode="," horiz-adv-x="569" d="M96 -307l187 307h-86l41 184h176l-41 -184l-197 -307h-80z" />
<glyph unicode="-" horiz-adv-x="681" d="M193 477l24 111h510l-25 -111h-509z" />
<glyph unicode="." horiz-adv-x="569" d="M197 0l41 184h176l-41 -184h-176z" />
<glyph unicode="/" horiz-adv-x="569" d="M-29 -20l842 1519h113l-834 -1519h-121z" />
<glyph unicode="0" d="M186 443.5q0 134.5 35 295.5t95 296t143.5 240t197 164.5t244.5 59.5t218 -59.5t124 -164.5t37 -240t-35 -296q-28 -128 -71 -239.5t-104.5 -208t-136 -165t-169 -107.5t-199.5 -39q-131 0 -218 59t-124 164.5t-37 240zM319 475q-4 -117 21.5 -204t88.5 -134t161 -47 t181 46.5t147 134t111.5 204t80.5 264.5q41 195 37 339.5t-72.5 227.5t-197.5 83q-98 0 -181 -47t-147 -134t-112 -204.5t-81 -264.5t-37 -264z" />
<glyph unicode="1" d="M274 0l25 111h254l274 1241l-290 -41l18 80l354 108h86l-307 -1388h246l-25 -111h-635z" />
<glyph unicode="2" d="M90 0l19 86q8 33 27.5 69t64.5 88.5t112.5 111.5t177 138.5t252.5 170.5q86 55 142.5 94.5t100 75.5t67.5 61.5t42 58t26.5 58.5t17.5 69q31 140 -32.5 224t-225.5 84q-133 0 -241 -84.5t-181 -249.5l-113 22q79 199 231.5 310.5t342.5 111.5q201 0 293 -111.5t49 -302.5 q-31 -144 -131 -253t-345 -259q-505 -308 -548 -462h811l-25 -111h-934z" />
<glyph unicode="3" d="M90 274l121 62q36 -138 114.5 -192t227.5 -54q363 0 436 324q35 159 -55 237t-301 78h-135l24 111h111q407 0 469 286q30 134 -40 198.5t-224 64.5q-100 0 -191 -47t-192 -146l-80 70q244 233 497 233q50 0 97.5 -7.5t95.5 -24.5t84.5 -44.5t64 -67.5t33 -93.5 t-7.5 -122.5q-28 -128 -100.5 -209t-212.5 -139q257 -105 198 -373q-33 -151 -121.5 -251t-208.5 -143.5t-272 -43.5q-375 0 -432 294z" />
<glyph unicode="4" d="M111 373l24 104l871 1002h180l-221 -998h223l-25 -108h-223l-82 -373h-135l82 373h-694zM270 483h559l193 869h-14z" />
<glyph unicode="5" d="M152 256l124 72q33 -124 107.5 -181t194.5 -57q95 0 176.5 32.5t138 88.5t93.5 124t54 144q39 178 -29 286.5t-231 108.5q-100 0 -208.5 -55.5t-170.5 -148.5l-102 18l242 791h735l-25 -111h-635l-155 -514q169 131 362 131q104 0 182 -40t118 -107.5t53.5 -157.5 t-11.5 -191q-51 -230 -216 -369.5t-412 -139.5q-143 0 -247.5 71.5t-137.5 204.5z" />
<glyph unicode="6" d="M192.5 481q8.5 95 32.5 205q26 116 71.5 228t115.5 219t155 187.5t196 129.5t232 49q188 0 324 -123l-84 -100q-71 113 -266 113q-97 0 -185.5 -42t-154 -109t-119 -155.5t-87 -176.5t-52.5 -177q98 88 214 142.5t226 54.5q147 0 241.5 -65t125.5 -175t0 -248 q-30 -137 -122.5 -243t-217.5 -160.5t-260 -54.5q-119 0 -201.5 41.5t-123 108.5t-55 161.5t-6 189.5zM330 526q-44 -199 31.5 -317.5t244.5 -118.5q171 0 287.5 99t155.5 272q35 157 -40 255.5t-245 98.5q-76 0 -157 -37.5t-138 -87.5t-95.5 -96t-43.5 -68z" />
<glyph unicode="7" d="M252 0l934 1368h-770l24 111h914l-19 -80l-938 -1399h-145z" />
<glyph unicode="8" d="M123 226q-12 67 10 155q26 117 127 216t301 181q-128 50 -180.5 137.5t-24.5 208.5q40 182 185 278.5t360 96.5q216 0 318.5 -96.5t62.5 -278.5q-56 -245 -360 -346q164 -82 221 -181t31 -216q-90 -401 -609 -401q-95 0 -169.5 13.5t-134.5 43t-93 76t-45 113.5zM268 381 q-31 -144 59.5 -217.5t262.5 -73.5t294.5 73.5t153.5 217.5q14 59 -0.5 106t-59.5 88t-101.5 73t-147.5 73q-109 -40 -180 -72.5t-134 -73.5t-98 -88t-49 -106zM492 1130q-46 -212 262 -299q347 87 393 299q28 127 -46 193t-224 66t-253.5 -66t-131.5 -193z" />
<glyph unicode="9" d="M127 102l84 105q50 -59 109 -88t151 -29q100 0 187.5 37t152.5 99t118 147t87 174.5t57 189.5q-98 -90 -214.5 -145t-227.5 -55q-88 0 -159.5 26t-116.5 70.5t-74 104.5t-32 128.5t11 141.5q26 113 87 207t143 155.5t179.5 95t198.5 33.5q119 0 201.5 -41.5t123 -108.5 t55 -161.5t6 -189.5t-32.5 -205q-27 -118 -68 -228t-106 -218.5t-144 -188t-188 -129t-232 -49.5q-221 0 -356 122zM397 1018q-36 -163 37.5 -267t243.5 -104q76 0 157 38t139 89t96.5 97.5t43.5 68.5q45 208 -29.5 328.5t-244.5 120.5q-171 0 -287.5 -99t-155.5 -272z" />
<glyph unicode=":" horiz-adv-x="569" d="M197 0l41 184h176l-41 -184h-176zM334 623l41 184h176l-41 -184h-176z" />
<glyph unicode=";" horiz-adv-x="569" d="M96 -307l187 307h-86l41 184h176l-41 -184l-197 -307h-80zM334 623l41 184h176l-41 -184h-176z" />
<glyph unicode="&#x3c;" horiz-adv-x="1228" d="M186 475l27 115l1173 487l-26 -119l-1020 -426l831 -426l-26 -118z" />
<glyph unicode="=" horiz-adv-x="1228" d="M141 272l25 111h1065l-25 -111h-1065zM233 682l25 111h1065l-25 -111h-1065z" />
<glyph unicode="&#x3e;" horiz-adv-x="1228" d="M80 -12l26 118l1020 426l-831 426l27 119l956 -487l-27 -115z" />
<glyph unicode="?" horiz-adv-x="796" d="M238 0l41 184h176l-41 -184h-176zM336 1247q146 252 393 252q67 0 122.5 -21.5t94 -63.5t51.5 -104.5t-4 -144.5q-16 -75 -67 -142.5t-113.5 -120t-125.5 -104t-113 -115.5t-66 -134l-21 -98h-110l33 147q13 58 59.5 117t105.5 111.5t118.5 106.5t107.5 121.5t63 137.5 q21 92 -25.5 144.5t-136.5 52.5q-154 0 -276 -193z" />
<glyph unicode="@" horiz-adv-x="1638" d="M245.5 542q-6.5 98 18.5 203q45 204 185.5 378t336 275t396.5 101q143 0 260 -47.5t190 -131.5t103 -200t-2 -254q-25 -114 -92.5 -223.5t-152 -187.5t-178.5 -126t-173 -48q-57 0 -88 37t-19 106l-6 -4q-164 -139 -299 -139q-126 0 -183 88.5t-28 216.5 q20 87 62.5 174.5t104 164.5t134 137t159.5 95t173 35q75 0 124 -42t60 -132l84 135h111l-336 -604q-45 -84 -51 -115q-13 -59 41 -59q81 0 176.5 75t170 191.5t99.5 230.5q28 122 2 221.5t-90.5 169.5t-160.5 108t-210 38q-181 0 -351.5 -93t-289 -248.5t-159.5 -336.5 q-21 -110 -12.5 -208t52.5 -181t110 -143.5t158.5 -94.5t198.5 -34q156 0 320 76t285 206h106q-132 -171 -332 -271.5t-399 -100.5q-106 0 -199.5 27.5t-165.5 77t-126.5 119.5t-82.5 155t-34.5 183zM645 596q-21 -92 17.5 -150.5t115.5 -58.5q70 0 148 52t140 128.5 t108.5 163t62.5 156.5q17 73 -22 135.5t-101 62.5q-76 0 -156.5 -48.5t-142.5 -121.5t-108 -158.5t-62 -160.5z" />
<glyph unicode="A" horiz-adv-x="1251" d="M51 0l801 1479h207l139 -1479h-143l-43 483h-559l-258 -483h-144zM512 594h494l-74 774h-4z" />
<glyph unicode="B" horiz-adv-x="1366" d="M205 0l327 1479h414q274 1 380 -89q76 -64 76 -180q0 -47 -13 -102q-26 -120 -92 -194.5t-189 -125.5q195 -96 195 -286q0 -45 -11 -96q-49 -219 -205 -312.5t-411 -93.5h-471zM365 111h350q195 0 302 73t142 230q8 35 8 67q0 91 -64 151q-86 82 -298 81h-307zM522 823 h322q70 0 131 13t118.5 42.5t98.5 85.5t59 134q10 57 10 97q-1 40 -19 69q-18 30 -44.5 50t-71 32t-96.5 17t-121 5h-266z" />
<glyph unicode="C" horiz-adv-x="1251" d="M242 339q-10 62 -10 132q0 122 30 268q76 346 273.5 553t463.5 207q96 0 168.5 -32.5t116.5 -91.5t67 -134.5t27 -169.5l-131 -27q-11 166 -82 255.5t-202 89.5q-86 0 -163.5 -33t-139.5 -91.5t-113.5 -140.5t-88.5 -178.5t-61 -206.5q-31 -139 -31 -254.5t32 -205 t106 -139.5t186 -50q86 0 157 28t125.5 81.5t93.5 112.5t77 139l121 -23q-91 -213 -235.5 -330.5t-364.5 -117.5q-176 0 -285.5 95t-136.5 264z" />
<glyph unicode="D" horiz-adv-x="1366" d="M205 0l327 1479h418q134 0 234 -39t159 -107.5t88 -162.5q28 -90 27 -192v-10q-2 -108 -28.5 -229t-73 -228.5t-117 -202t-159 -162.5t-206 -107t-251.5 -39h-418zM365 111h286q245 0 411 163.5t232 464.5q27 125 27 226q0 143 -54 239q-93 164 -337 164h-287z" />
<glyph unicode="E" d="M205 0l327 1479h844l-24 -111h-709l-121 -545h510l-24 -110h-510l-133 -602h747l-25 -111h-882z" />
<glyph unicode="F" d="M205 0l327 1479h869l-25 -111h-733l-121 -545h535l-25 -110h-534l-158 -713h-135z" />
<glyph unicode="G" horiz-adv-x="1366" d="M244 325q-14 67 -14 146q0 120 32 268q40 179 117 324.5t176 240t214 145t235 50.5q200 0 304 -117q101 -113 101 -300v-11l-131 -22q-2 73 -19.5 133t-53 107t-95 73.5t-139.5 26.5q-196 0 -352 -176t-222 -474q-19 -84 -27 -159q-5 -50 -5 -102q0 -23 1 -48 q4 -75 27 -135t63.5 -107t109.5 -72.5t161 -25.5q154 0 272.5 102.5t151.5 253.5l31 136h-373l25 110h507l-153 -692h-117l33 145h-4q-88 -88 -187.5 -126.5t-250.5 -38.5q-166 0 -274.5 88t-143.5 257z" />
<glyph unicode="H" horiz-adv-x="1478" d="M205 0l327 1479h136l-146 -656h799l145 656h136l-328 -1479h-135l157 713h-798l-158 -713h-135z" />
<glyph unicode="I" horiz-adv-x="569" d="M217 0l328 1479h135l-328 -1479h-135z" />
<glyph unicode="J" horiz-adv-x="909" d="M39 176l123 64q30 -83 69.5 -116.5t130.5 -33.5q99 0 162.5 63.5t93.5 198.5l250 1127h136l-259 -1168q-36 -162 -146 -246.5t-269 -84.5q-128 0 -191 45.5t-100 150.5z" />
<glyph unicode="K" horiz-adv-x="1251" d="M205 0l327 1479h136l-179 -803l854 803h166l-602 -566l332 -913h-152l-288 815l-350 -321l-109 -494h-135z" />
<glyph unicode="L" horiz-adv-x="1024" d="M205 0l327 1479h136l-303 -1368h659l-25 -111h-794z" />
<glyph unicode="M" horiz-adv-x="1705" d="M205 0l327 1479h238l129 -1254h4l688 1254h238l-328 -1479h-135l303 1368h-4l-747 -1368h-130l-141 1368h-4l-303 -1368h-135z" />
<glyph unicode="N" horiz-adv-x="1478" d="M205 0l327 1479h228l430 -1233h4l272 1233h136l-328 -1479h-139l-488 1368h-4l-303 -1368h-135z" />
<glyph unicode="O" horiz-adv-x="1366" d="M262 739q48 219 153.5 390t261.5 270.5t337 99.5q109 0 194.5 -37t139.5 -105q56 -68 84 -162q28 -92 28 -206v-3q0 -116 -30 -247q-36 -164 -106.5 -303t-166 -240t-219.5 -158.5t-260 -57.5q-109 0 -194.5 37t-139.5 105q-56 68 -84 162q-28 92 -28 205q0 117 30 250z M397 739q-31 -139 -31 -250q0 -135 46 -229q83 -170 290 -170t365.5 170.5t226.5 478.5q31 139 31 250q0 135 -46 229q-83 171 -290 171t-365.5 -171t-226.5 -479z" />
<glyph unicode="P" horiz-adv-x="1251" d="M205 0l327 1479h447q255 0 353 -109q69 -76 69 -195q0 -50 -12 -108q-43 -194 -190 -303t-402 -109h-312l-145 -655h-135zM510 766h311q188 0 292.5 75.5t139.5 225.5q10 47 10 86q0 86 -49 139q-72 76 -260 76h-311z" />
<glyph unicode="Q" horiz-adv-x="1366" d="M262 739q48 219 153.5 390t261.5 270.5t337 99.5q109 0 194.5 -37t140 -105t83.5 -162q28 -92 28 -206v-3q-1 -116 -30 -247q-41 -189 -127 -343t-207 -255q29 -82 77 -111.5t146 -29.5l-27 -123q-107 0 -189.5 44.5t-115.5 141.5q-142 -83 -309 -83q-109 0 -194.5 37 t-140 105t-83.5 162q-28 91 -28 205q0 117 30 250zM397 739q-31 -139 -31 -250q0 -135 46 -229q83 -170 290 -170q132 0 250 74q-31 82 -65 115.5t-94 42.5l28 133q170 -30 244 -197q159 170 229 481q31 139 31 250q0 135 -46 229q-83 171 -290 171t-365.5 -171t-226.5 -479 z" />
<glyph unicode="R" horiz-adv-x="1366" d="M205 0l327 1479h500q215 0 311 -109q68 -77 68 -191q0 -48 -12 -102q-66 -300 -391 -377l206 -700h-147l-195 676h-383l-149 -676h-135zM514 786h365q148 0 251 77.5t134 213.5q10 44 10 82q0 81 -44 133q-64 76 -222 76h-365z" />
<glyph unicode="S" d="M150 375l133 39q4 -168 89 -246t261 -78q137 0 233 80t127 215q7 29 7 55q0 24 -6 48q-12 46 -44 78t-77 59.5t-98.5 47.5t-109 43t-108.5 45.5t-96.5 56t-73.5 72.5q-29 40 -39 98q-4 21 -4 44q0 39 10 84q38 169 174 276t336 107q176 0 280 -92.5t116 -261.5l-125 -35 q-13 129 -86 204t-209 75q-131 0 -226.5 -72.5t-124.5 -200.5q-8 -28 -8 -54q1 -8 1 -17q4 -34 25 -65.5t76 -66t146 -71.5q145 -59 229.5 -109.5t128.5 -104.5q45 -56 49 -116q1 -13 1 -27q0 -51 -13 -114q-27 -122 -110 -212.5t-193.5 -134.5t-232.5 -44q-212 0 -317.5 96 t-120.5 299z" />
<glyph unicode="T" d="M367 1368l24 111h1012l-25 -111h-438l-303 -1368h-135l303 1368h-438z" />
<glyph unicode="U" horiz-adv-x="1478" d="M311 483l221 996h136l-224 -1008q-17 -76 -17 -136q0 -103 50 -157q79 -88 283 -88q203 0 320 87.5t163 293.5l223 1008h136l-222 -996q-111 -503 -645 -503q-443 0 -443 345q0 72 19 158z" />
<glyph unicode="V" d="M344 1479h143l117 -1286h4l699 1286h143l-819 -1479h-135z" />
<glyph unicode="W" horiz-adv-x="1705" d="M360 1479h138l43 -1233h4l567 1233h135l17 -1233h4l594 1233h137l-723 -1479h-135l-19 1217h-4l-559 -1217h-135z" />
<glyph unicode="X" d="M25 0l632 774l-278 705h160l223 -590l477 590h160l-582 -705l297 -774h-160l-245 647l-525 -647h-159z" />
<glyph unicode="Y" d="M369 1479h151l203 -731l551 731h151l-657 -852l-139 -627h-135l139 627z" />
<glyph unicode="Z" d="M94 0l25 111l1050 1257h-708l24 111h877l-25 -115l-1050 -1253h782l-25 -111h-950z" />
<glyph unicode="[" horiz-adv-x="681" d="M147 -147l361 1626h381l-17 -74h-258l-327 -1479h258l-17 -73h-381z" />
<glyph unicode="\" horiz-adv-x="569" d="M307 1499h113l170 -1519h-121z" />
<glyph unicode="]" horiz-adv-x="681" d="M88 -147l16 73h258l328 1479h-258l17 74h380l-360 -1626h-381z" />
<glyph unicode="^" horiz-adv-x="1228" d="M250 606l637 873h108l254 -873h-135l-209 725l-520 -725h-135z" />
<glyph unicode="_" horiz-adv-x="1024" d="M-57 -256l22 102h1024l-22 -102h-1024z" />
<glyph unicode="`" horiz-adv-x="454" d="M297 1466h158l163 -282h-104z" />
<glyph unicode="a" horiz-adv-x="1024" d="M111 258q13 62 40.5 111.5t57.5 85.5t91 68.5t105.5 52.5t140 45t156.5 38.5t189 40.5l16 74q9 39 9 70q0 57 -28 91q-44 52 -177 52q-191 0 -353 -192l-71 49q96 126 206 183.5t242 57.5q184 0 253 -79q44 -50 45 -140q0 -51 -15 -114l-123 -557q-21 -95 -27 -195h-118 l12 129q-120 -80 -211.5 -114.5t-208.5 -34.5q-128 0 -194 74q-46 52 -46 130q0 35 9 74zM233 260q-5 -26 -6 -49q-1 -52 29 -85q42 -48 127 -48q87 0 196 47.5t205 128.5l78 348q-150 -31 -258.5 -63.5t-174.5 -63t-108 -67.5t-60 -70t-28 -78z" />
<glyph unicode="b" d="M188 0l328 1479h123l-123 -553q100 86 182.5 122.5t186.5 36.5q122 0 203 -72q82 -71 105 -193q10 -51 9 -109q0 -80 -18 -172q-60 -271 -202 -415t-349 -144q-231 0 -307 159l-52 -139h-86zM371 272q49 -96 110 -145t166 -49q153 0 260 121.5t150 316.5q21 98 21 177 q0 95 -30 165q-56 128 -217 129q-83 0 -189 -63.5t-155 -126.5z" />
<glyph unicode="c" horiz-adv-x="1024" d="M173 310q-2 24 -2 49q0 81 22 173q59 269 213.5 411t365.5 142q146 0 226.5 -75.5t99.5 -212.5l-119 -31q-24 104 -76.5 162.5t-150.5 58.5q-159 0 -272 -109t-165 -346q-20 -89 -20 -163q0 -97 35 -167q61 -124 219 -124q107 0 190.5 54t178.5 167l88 -47 q-220 -272 -478 -272q-110 0 -188.5 41t-118 114.5t-48.5 174.5z" />
<glyph unicode="d" d="M193 539q53 237 204 391.5t336 154.5q105 0 171 -36.5t128 -122.5l123 553h123l-328 -1479h-86l10 139q-146 -159 -376 -159q-207 0 -286 144q-45 82 -45 205q0 93 26 210zM291 344q3 -80 26 -139t76 -93t131 -34q106 0 191.5 50t171.5 144l117 525q-22 63 -99 126.5 t-160 63.5q-161 0 -274 -128.5t-160 -342.5q-20 -81 -20 -153v-19z" />
<glyph unicode="e" horiz-adv-x="1024" d="M193 532q54 249 206 401t353 152q210 -1 285 -151q43 -86 43 -205q0 -91 -25 -201h-742q-19 -76 -19 -146v-26q4 -82 29 -143.5t84.5 -98t147.5 -36.5q103 0 178 44.5t182 170.5l89 -53q-119 -143 -224.5 -201.5t-255.5 -58.5q-215 0 -304 138q-52 82 -52 211 q0 90 25 203zM336 627h618q5 44 5 82q0 113 -41 183q-55 94 -191 95h-4q-75 0 -143 -35q-70 -36 -118 -92t-80.5 -116.5t-45.5 -116.5z" />
<glyph unicode="f" horiz-adv-x="569" d="M197 0l215 967h-176l20 98h176l35 152q32 141 107.5 211.5t209.5 70.5q41 0 131 -16l-24 -103q-61 21 -115 21q-74 0 -118.5 -40t-65.5 -130l-37 -166h217l-20 -98h-217l-216 -967h-122z" />
<glyph unicode="g" horiz-adv-x="1024" d="M8 -188q-2 10 -2 21q0 21 6 42q16 76 70 131t168 94v4q-63 14 -94 46q-21 22 -21 59q0 16 4 35q14 64 75 115.5t126 64.5q-62 50 -86 122q-14 41 -14 85q0 35 8 71q38 175 175.5 279t330.5 104q137 0 233 -73q114 94 244 94l-25 -111q-122 0 -182 -49q37 -60 37 -137 q0 -41 -10 -86q-41 -186 -177 -279.5t-317 -93.5q-76 0 -166 33q-104 -36 -121 -102q-7 -34 10.5 -52t88.5 -29.5t211 -11.5q233 0 327 -71q71 -54 71 -144q0 -29 -7 -61q-13 -61 -49 -111.5t-99.5 -91.5t-165.5 -63.5t-235 -22.5q-89 0 -159.5 10t-116 27.5t-77.5 41 t-44.5 51.5t-16.5 59zM141 -102q-4 -16 -4 -31q0 -60 57 -98q72 -48 232 -48q193 0 298 48.5t124 134.5q3 27 1 52t-25 47t-61 39t-106 26.5t-161 9.5q-168 0 -253 -51t-102 -129zM373 715q-9 -41 -9 -76q0 -76 44 -123q63 -67 184 -67q275 0 334 266q11 49 11 89 q0 71 -37 115q-57 68 -189 68q-129 0 -219.5 -73.5t-118.5 -198.5z" />
<glyph unicode="h" d="M168 0l328 1479h122l-129 -582q116 98 206 143t200 45q254 0 254 -229q0 -57 -16 -129l-162 -727h-123l158 715q15 66 15 115q0 54 -18 90q-34 67 -153 67q-22 0 -41.5 -2t-42 -10t-37.5 -12.5t-41 -20.5t-37.5 -22t-43.5 -29.5t-42 -30.5t-49.5 -37t-50.5 -39l-174 -784 h-123z" />
<glyph unicode="i" horiz-adv-x="454" d="M166 0l235 1065h123l-235 -1065h-123zM455 1298l39 181h122l-38 -181h-123z" />
<glyph unicode="j" horiz-adv-x="454" d="M-121 -365l21 101q54 -15 84 -15q62 0 97 26.5t48 84.5l272 1233h123l-272 -1235q-25 -111 -91 -159t-175 -48q-66 0 -107 12zM455 1298l39 181h122l-38 -181h-123z" />
<glyph unicode="k" horiz-adv-x="1024" d="M168 0l328 1479h122l-217 -979l619 565h141l-434 -397l252 -668h-137l-211 582l-264 -238l-76 -344h-123z" />
<glyph unicode="l" horiz-adv-x="454" d="M166 0l328 1479h122l-327 -1479h-123z" />
<glyph unicode="m" horiz-adv-x="1705" d="M168 0l235 1065h123l-34 -162q113 98 195.5 140t197.5 42q91 0 151.5 -53t63.5 -141q104 95 196 144.5t199 49.5q139 0 193 -74q35 -47 35 -121q0 -42 -11 -93l-176 -797h-123l180 809q6 30 6 55q0 123 -151 123q-70 0 -182.5 -63t-178.5 -140l-174 -784h-122l180 809 q6 30 6 55q0 123 -152 123q-70 0 -182 -63t-178 -140l-174 -784h-123z" />
<glyph unicode="n" d="M168 0l235 1065h123l-37 -168q116 98 206 143t200 45q254 0 254 -229q0 -57 -16 -129l-162 -727h-123l158 715q15 66 15 115q0 54 -18 90q-34 67 -153 67q-22 0 -41.5 -2t-42 -10t-37.5 -12.5t-41 -20.5t-37.5 -22t-43.5 -29.5t-42 -30.5t-49.5 -37t-50.5 -39l-174 -784 h-123z" />
<glyph unicode="o" horiz-adv-x="1024" d="M168 364q4 78 25 168q20 90 50.5 168.5t78 150.5t108 123t143 81t179.5 30t166.5 -30t107.5 -81t54 -123q14 -59 13 -123q-1 -14 -1 -28q-4 -78 -23 -168q-21 -91 -52 -169t-79 -150t-108 -122.5t-142.5 -80.5t-179.5 -30t-166.5 30t-107.5 81t-54 123q-13 57 -13 118 q0 16 1 32zM315 532q-26 -112 -26 -197q0 -257 239 -257q314 0 418 454q24 109 24 192q0 263 -239 263q-317 0 -416 -455z" />
<glyph unicode="p" d="M104 -377l320 1442h123l-35 -164h4q166 184 361 184q81 0 144 -30t102 -82.5t59 -122.5q21 -69 21 -150q0 -84 -21 -174q-60 -270 -204 -408t-337 -138q-105 0 -171 36.5t-128 122.5l-115 -516h-123zM371 268q22 -63 98.5 -126.5t159.5 -63.5q163 0 273.5 123t160.5 348 q15 68 17 131q1 10 1 20q0 51 -11 98q-12 57 -38.5 98.5t-73 66t-108.5 24.5q-49 0 -93.5 -13t-93 -44t-82 -58t-94.5 -79z" />
<glyph unicode="q" d="M181 244q-10 50 -10 107q0 79 19 171q60 270 202 412.5t349 142.5q197 0 308 -157l49 137h86l-318 -1434h-123l115 514q-100 -85 -182.5 -121t-186.5 -36q-122 0 -203.5 71.5t-104.5 192.5zM317 545q-21 -97 -21 -176q0 -95 30 -164q56 -127 217 -127q84 0 189.5 63 t154.5 125l114 520q-31 62 -62.5 101t-86 65.5t-127.5 26.5q-153 0 -259.5 -120.5t-148.5 -313.5z" />
<glyph unicode="r" horiz-adv-x="681" d="M160 0l235 1065h123l-45 -203h4q68 101 163 162t194 61h55l-25 -118h-55q-68 0 -150.5 -47.5t-152 -133.5t-90.5 -184l-133 -602h-123z" />
<glyph unicode="s" horiz-adv-x="909" d="M94 195l105 63q49 -104 114 -142t174 -38q101 0 182.5 58.5t100.5 144.5q5 22 5 43q0 24 -7 44q-13 38 -44 59.5t-74 40t-92 30.5t-98 28.5t-91 35.5t-72 51q-30 33 -41 75q-5 19 -5 43q0 29 7 64q32 143 144 216.5t257 73.5q250 0 326 -192l-108 -66q-42 80 -97 120 t-145 40q-94 0 -162.5 -46.5t-89.5 -139.5q-3 -16 -3 -30q0 -28 12 -50q20 -34 59.5 -53t92 -37t107.5 -32.5t106 -39.5t87 -59q38 -32 52 -88q7 -26 6 -56q0 -35 -9 -75q-30 -137 -156 -219t-278 -82q-268 0 -365 215z" />
<glyph unicode="t" horiz-adv-x="569" d="M217 166l178 801h-159l20 98h160l78 348h122l-77 -348h233l-20 -98h-234l-174 -781q-4 -21 -5 -37q0 -29 13 -45q20 -26 76 -26t131 22l-22 -102q-14 -2 -41 -7t-48.5 -8t-39.5 -3q-128 0 -170 44q-28 29 -29 81q0 27 8 61z" />
<glyph unicode="u" d="M244 338l159 727h123l-157 -715q-15 -66 -15 -115q0 -54 18 -90q34 -67 152 -67q22 0 41.5 2t42 10t37.5 12.5t41 20.5t37.5 22t43.5 29.5t42 30.5t49.5 37t50.5 39l174 784h123l-235 -1065h-123l37 168q-116 -98 -206 -143t-200 -45q-162 0 -218 90q-33 53 -33 137 q0 58 16 131z" />
<glyph unicode="v" horiz-adv-x="909" d="M264 1065h131l97 -877h4l489 877h131l-602 -1065h-121z" />
<glyph unicode="w" horiz-adv-x="1366" d="M250 1065h125l45 -856h4l432 856h121l49 -856h4l428 856h127l-545 -1065h-120l-50 856h-4l-428 -856h-127z" />
<glyph unicode="x" horiz-adv-x="909" d="M20 0l486 565l-209 500h147l162 -385l330 385h147l-430 -500l236 -565h-148l-186 449l-387 -449h-148z" />
<glyph unicode="y" horiz-adv-x="909" d="M-47 -365l20 101q6 -1 49.5 -8t71.5 -7q71 0 149.5 70.5t155.5 224.5l-139 1049h135l103 -866h4l487 866h131l-649 -1141q-63 -110 -117 -172.5t-125 -95.5t-166 -33q-69 0 -110 12z" />
<glyph unicode="z" horiz-adv-x="909" d="M51 0l17 78l813 889h-566l21 98h729l-16 -78l-811 -889h630l-22 -98h-795z" />
<glyph unicode="{" horiz-adv-x="681" d="M227 63l88 400q21 79 1.5 122.5t-87.5 43.5l17 73q67 0 103.5 41t56.5 125l88 400q25 110 85 170.5t146 60.5h127l-16 -74h-103q-43 0 -67.5 -27t-42.5 -108l-91 -403q-23 -98 -70.5 -149.5t-125.5 -69.5v-4q69 -18 94.5 -70t3.5 -150l-90 -403q-15 -56 -9.5 -86 t19.5 -39.5t43 -9.5h103l-17 -74h-127q-86 0 -120 60.5t-9 170.5z" />
<glyph unicode="|" horiz-adv-x="851" d="M539 -575v2306h106v-2306h-106z" />
<glyph unicode="}" horiz-adv-x="681" d="M125 -168l16 74h103q43 0 67.5 27t42.5 108l90 403q23 98 71 150t126 70v4q-69 18 -94.5 69.5t-3.5 149.5l90 403q15 56 9.5 86t-19.5 39.5t-43 9.5h-103l17 74h127q86 0 120 -60.5t9 -170.5l-88 -400q-21 -80 -1.5 -123t87.5 -43l-17 -73q-67 0 -103.5 -41t-56.5 -125 l-88 -400q-25 -110 -85 -170.5t-146 -60.5h-127z" />
<glyph unicode="~" horiz-adv-x="1228" d="M213 485q132 172 313 172q89 0 230 -65q8 -3 32 -14t33.5 -15t30 -12.5t32.5 -12t28.5 -8t30 -6.5t26.5 -2q31 0 61 11t60.5 35.5t50.5 43.5t53 54l59 -86q-136 -172 -315 -172q-88 0 -229 65q-4 2 -27 12t-29.5 13t-26 11.5t-28.5 11.5l-25.5 8.5t-27 7.5t-23.5 4t-24 2 q-31 0 -61.5 -11.5t-61 -35t-52 -43.5t-53.5 -54z" />
<glyph unicode="&#xa1;" horiz-adv-x="454" d="M47 -414l264 1024h103l-191 -1024h-176zM334 881l41 184h176l-41 -184h-176z" />
<glyph unicode="&#xa2;" d="M227 -246l152 277q-103 64 -136 196.5t7 304.5q59 269 213.5 411t365.5 142q63 0 119 -16l119 219h111l-144 -262q102 -75 121 -229l-119 -31q-20 90 -63 147l-451 -823q38 -12 84 -12q107 0 190.5 54t178.5 167l88 -47q-220 -272 -477 -272q-68 0 -117 14l-131 -240 h-111zM358.5 294.5q16.5 -102.5 79.5 -157.5l457 834q-40 16 -86 16q-337 0 -436 -455q-31 -135 -14.5 -237.5z" />
<glyph unicode="&#xa3;" d="M29 -20l28 126q135 55 217.5 175t116.5 270q11 54 19 135h-228l23 98h215q4 31 15 137.5t22 163.5q43 188 180.5 301t325.5 113q175 0 267.5 -101t86.5 -274l-125 -28q2 142 -56.5 217.5t-199.5 75.5q-144 0 -234 -83t-122 -227q-25 -107 -33 -295h299l-23 -98h-286 q-4 -18 -8.5 -54t-8.5 -54q-24 -102 -57.5 -179t-93.5 -166q191 -143 323 -143q127 0 211 60t160 217l108 -25q-73 -175 -195 -268.5t-288 -93.5q-57 0 -108 10t-82.5 20t-77 38t-61.5 40.5t-66 50.5q-128 -134 -264 -159z" />
<glyph unicode="&#xa4;" d="M129 309l135 111q-81 127 -39 319q41 190 183 320l-86 110l94 78l90 -112q156 112 340 112q182 0 291 -112l139 112l61 -78l-135 -110q81 -128 39 -320q-41 -190 -182 -319l86 -111l-94 -78l-90 113q-158 -113 -340 -113q-181 0 -291 113l-140 -113zM336 739 q-24 -109 8.5 -203t112 -150t186.5 -56q163 0 306.5 121t180.5 288t-53.5 288.5t-253.5 121.5t-306.5 -121.5t-180.5 -288.5z" />
<glyph unicode="&#xa5;" d="M246 504l20 98h361l6 25l-51 176h-271l23 98h221l-170 578h135l203 -731l551 731h135l-434 -578h215l-23 -98h-266l-133 -176l-6 -25h360l-20 -98h-361l-112 -504h-135l112 504h-360z" />
<glyph unicode="&#xa6;" horiz-adv-x="851" d="M539 -401v804h106v-804h-106zM539 752v804h106v-804h-106z" />
<glyph unicode="&#xa7;" horiz-adv-x="1024" d="M182 27l99 55q11 -68 59.5 -112t120.5 -44q86 0 142 38.5t73 113.5q10 43 -16.5 102t-72.5 117t-100 127.5t-99 131.5t-69 130.5t-12 124.5q21 95 102 152t183 57l6 4q-109 94 -76 238q23 105 112.5 171t209.5 66q104 0 170.5 -52.5t91.5 -148.5l-94 -51 q-22 78 -68.5 120t-128.5 42q-73 0 -124.5 -40.5t-69.5 -123.5q-9 -40 18 -93t74 -105t101.5 -115.5t100 -122.5t69.5 -127.5t11 -128.5q-26 -118 -96.5 -170t-177.5 -59q85 -134 55 -261q-25 -112 -122 -169.5t-216 -57.5q-95 0 -167 53t-89 138zM414 831q-9 -40 24.5 -116 t83.5 -147t106.5 -125t88.5 -54q64 0 111 40.5t61 102.5q7 34 -24.5 105.5t-80 141t-108 122.5t-101.5 53q-49 0 -99.5 -35t-61.5 -88z" />
<glyph unicode="&#xa8;" horiz-adv-x="454" d="M266 1204l43 193h135l-43 -193h-135zM586 1204l43 193h135l-43 -193h-135z" />
<glyph unicode="&#xa9;" horiz-adv-x="1638" d="M223 739q34 154 125 294.5t215.5 242.5t278.5 162.5t309 60.5q206 0 358.5 -102t215.5 -277t18 -381t-185.5 -380.5t-338.5 -276.5t-404 -102t-358.5 102t-215.5 276.5t-18 380.5zM346 739q-41 -181 8.5 -331.5t177 -238t306.5 -87.5t344.5 87.5t281 237.5t156.5 332 q41 181 -8.5 332t-177 238.5t-306.5 87.5t-344.5 -87.5t-281 -238t-156.5 -332.5zM545 741q47 210 199.5 345t361.5 135q154 0 243 -84t76 -234h-110q0 93 -60.5 154t-169.5 61q-155 0 -267.5 -107t-149.5 -268q-22 -101 -0.5 -187.5t88 -141t166.5 -54.5q107 0 194 64 t127 160h111q-67 -147 -189.5 -236.5t-265.5 -89.5q-137 0 -228.5 64t-123.5 173.5t-2 245.5z" />
<glyph unicode="&#xaa;" horiz-adv-x="614" d="M248 1006q11 51 42.5 92t69.5 65t92 44t96 29.5t97 21t80 18.5l12 51q8 43 -16.5 66.5t-95.5 23.5q-65 0 -114 -24t-97 -76l-58 41q63 75 132.5 108t164.5 33q118 0 161 -46t20 -150l-72 -320q-14 -73 -17 -131h-90l9 78q-67 -48 -125.5 -69t-135.5 -21q-84 0 -128 45 t-27 121zM350 1008q-8 -38 15 -62t69 -24q58 0 125 26.5t109 67.5l39 172q-18 -5 -70 -17t-91 -23.5t-84.5 -30t-74.5 -46.5t-37 -63z" />
<glyph unicode="&#xab;" horiz-adv-x="1024" d="M287 537l317 311h135l-323 -311l182 -320h-135zM590 537l319 311h135l-325 -311l184 -320h-135z" />
<glyph unicode="&#xac;" horiz-adv-x="1228" d="M233 682l25 111h1065l-117 -521h-110l92 410h-955z" />
<glyph unicode="&#xad;" horiz-adv-x="681" d="M193 477l24 111h510l-25 -111h-509z" />
<glyph unicode="&#xae;" horiz-adv-x="1638" d="M223 739q34 154 125 294.5t215.5 242.5t278.5 162.5t309 60.5q206 0 358.5 -102t215.5 -277t18 -381t-185.5 -380.5t-338.5 -276.5t-404 -102t-358.5 102t-215.5 276.5t-18 380.5zM346 739q-41 -181 8.5 -331.5t177 -238t306.5 -87.5t344.5 87.5t281 237.5t156.5 332 q41 181 -8.5 332t-177 238.5t-306.5 87.5t-344.5 -87.5t-281 -238t-156.5 -332.5zM600 287l201 903h346q150 0 207 -63t30 -187q-26 -111 -98.5 -171.5t-167.5 -80.5l164 -401h-139l-158 401h-174l-88 -401h-123zM836 791h141q115 0 158 11q102 29 127 140q10 45 0.5 75.5 t-37 45t-57 19.5t-70.5 5h-197z" />
<glyph unicode="&#xaf;" horiz-adv-x="454" d="M205 1264l20 90h606l-20 -90h-606z" />
<glyph unicode="&#xb0;" horiz-adv-x="819" d="M377 1200q28 125 133.5 212t230.5 87q126 0 194 -87t40 -212t-133.5 -212t-231.5 -87t-193.5 87t-39.5 212zM471 1200q-20 -92 24 -152.5t134 -60.5t161 60.5t91 152.5t-24 152.5t-134 60.5t-161 -60.5t-91 -152.5z" />
<glyph unicode="&#xb1;" horiz-adv-x="1228" d="M82 0l24 111h1065l-24 -111h-1065zM209 575l24 111h478l84 379h110l-84 -379h477l-24 -111h-477l-84 -378h-111l84 378h-477z" />
<glyph unicode="&#xb2;" horiz-adv-x="681" d="M166 598l14 68q9 41 31 73.5t91.5 87.5t195.5 131q176 101 238.5 159.5t76.5 123.5q17 75 -18 121.5t-111 46.5q-188 0 -270 -178l-90 14q50 120 148.5 187t225.5 67q128 0 188.5 -71t31.5 -195q-9 -41 -30 -77t-44 -62t-62 -55.5t-67.5 -47t-78.5 -47t-77 -47.5 q-11 -7 -31 -20q-131 -84 -179 -120.5t-58 -68.5h504l-19 -90h-610z" />
<glyph unicode="&#xb3;" horiz-adv-x="681" d="M172 762l96 49q24 -77 71 -106t142 -29q105 0 172 45.5t86 124.5q20 91 -37 134.5t-182 43.5h-88l21 90h71q119 0 189 38t90 122q13 62 -29 98.5t-115 36.5q-83 0 -133 -20t-112 -82l-62 47q73 79 148.5 112t169.5 33q117 0 190.5 -56t50.5 -161q-19 -82 -57 -129.5 t-125 -79.5q77 -29 107 -82.5t10 -142.5q-29 -133 -133.5 -197.5t-255.5 -64.5q-239 0 -285 176z" />
<glyph unicode="&#xb4;" horiz-adv-x="454" d="M360 1184l291 282h158l-344 -282h-105z" />
<glyph unicode="&#xb5;" d="M84 -377l319 1442h123l-157 -715q-31 -138 3 -205t152 -67q22 0 41.5 2t42 10t37.5 12.5t41 20.5t37.5 22t43.5 29.5t42 30.5t49.5 37t50.5 39l174 784h123l-235 -1065h-123l37 168q-116 -98 -206 -143t-200 -45q-121 0 -182 49l-90 -406h-123z" />
<glyph unicode="&#xb6;" horiz-adv-x="1024" d="M272 1077q43 193 186 297.5t359 104.5h539l-21 -90h-151l-344 -1553h-103l344 1553h-215l-344 -1553h-102l188 852q-178 0 -275 114.5t-61 274.5z" />
<glyph unicode="&#xb7;" horiz-adv-x="569" d="M301 532q9 42 47 72.5t78 30.5t64.5 -30.5t15.5 -72.5q-10 -42 -47.5 -72t-77.5 -30q-41 0 -65.5 30t-14.5 72z" />
<glyph unicode="&#xb8;" horiz-adv-x="454" d="M-86 -385l45 74q85 -33 115 -33q69 0 106 20t47 64q8 40 -14 62t-59 22q-48 0 -95 -19l-24 27l160 168h77l-110 -102l2 -4q28 12 67 12q74 0 107 -46.5t14 -125.5q-12 -51 -56 -89t-95 -54.5t-99 -16.5q-118 0 -188 41z" />
<glyph unicode="&#xb9;" horiz-adv-x="681" d="M283 598l18 90h150l157 709l-176 -41l17 76l204 67h84l-180 -811h158l-19 -90h-413z" />
<glyph unicode="&#xba;" horiz-adv-x="614" d="M267 1068.5q2 46.5 14 100.5q15 68 42 124.5t69 104t105.5 74.5t141.5 27t129.5 -27.5t71.5 -73t24.5 -105t-12.5 -124.5q-15 -68 -42.5 -124.5t-70 -104t-105 -74t-140.5 -26.5q-63 0 -109 18t-71.5 48t-37 73t-9.5 89.5zM392.5 993q26.5 -59 121.5 -59q94 0 145 57 t78 178q28 114 1 175t-120 61q-94 0 -145.5 -58t-77.5 -178q-29 -117 -2.5 -176z" />
<glyph unicode="&#xbb;" horiz-adv-x="1024" d="M215 217l326 311l-185 320h136l178 -320l-320 -311h-135zM520 217l324 311l-182 320h135l176 -320l-318 -311h-135z" />
<glyph unicode="&#xbc;" horiz-adv-x="1708" d="M332 598l18 90h150l157 709l-176 -41l17 76l204 67h84l-180 -811h158l-19 -90h-413zM367 -20l1245 1519h117l-1242 -1519h-120zM993 213l23 98l528 578h137l-129 -586h146l-21 -90h-145l-47 -213h-107l47 213h-432zM1128 303h318l102 463h-8z" />
<glyph unicode="&#xbd;" horiz-adv-x="1708" d="M332 598l18 90h150l157 709l-176 -41l17 76l204 67h84l-180 -811h158l-19 -90h-413zM342 -20l1245 1519h117l-1241 -1519h-121zM1008 0l14 68q9 41 31 73.5t91 87.5t195 131q177 102 240.5 160t77.5 123q15 76 -20 122t-111 46q-189 0 -269 -178l-92 14q49 120 149 187 t228 67q127 0 186.5 -70.5t32.5 -195.5q-9 -41 -30 -77t-44 -62t-62.5 -55t-68 -47t-78 -47.5t-77.5 -47.5q-181 -117 -219 -148q-39 -34 -47 -61h503l-20 -90h-610z" />
<glyph unicode="&#xbe;" horiz-adv-x="1708" d="M229 762l97 49q24 -77 71 -106t142 -29q105 0 172 45.5t86 124.5q20 91 -37 134.5t-182 43.5h-89l21 90h72q119 0 188.5 38t89.5 122q13 62 -28.5 98.5t-114.5 36.5q-83 0 -133.5 -20t-112.5 -82l-61 47q73 79 148 112t169 33q117 0 191 -56t51 -161q-19 -82 -57 -129.5 t-126 -79.5q77 -29 107 -82.5t10 -142.5q-29 -133 -133.5 -197.5t-255.5 -64.5q-239 0 -285 176zM399 -20l1246 1519h116l-1241 -1519h-121zM993 213l23 98l528 578h137l-129 -586h146l-21 -90h-145l-47 -213h-107l47 213h-432zM1128 303h318l102 463h-8z" />
<glyph unicode="&#xbf;" horiz-adv-x="796" d="M35 -244.5q-13 62.5 4 144.5q17 75 68 142.5t113.5 120t125 104t112.5 115.5t66 134l23 98h110l-32 -147q-13 -58 -59.5 -117t-106 -111.5t-119 -106.5t-108 -121.5t-64.5 -137.5q-20 -92 26.5 -144.5t135.5 -52.5q159 0 276 193l90 -51q-146 -252 -393 -252 q-67 0 -122.5 21.5t-94 63.5t-51.5 104.5zM578 881l40 184h177l-41 -184h-176z" />
<glyph unicode="&#xc0;" horiz-adv-x="1251" d="M51 0l801 1479h207l139 -1479h-143l-43 483h-559l-258 -483h-144zM512 594h494l-74 774h-4zM770 1825h158l164 -283h-105z" />
<glyph unicode="&#xc1;" horiz-adv-x="1251" d="M51 0l801 1479h207l139 -1479h-143l-43 483h-559l-258 -483h-144zM512 594h494l-74 774h-4zM834 1542l290 283h158l-344 -283h-104z" />
<glyph unicode="&#xc2;" horiz-adv-x="1251" d="M51 0l801 1479h207l139 -1479h-143l-43 483h-559l-258 -483h-144zM512 594h494l-74 774h-4zM659 1542l297 283h140l170 -283h-136l-122 207l-213 -207h-136z" />
<glyph unicode="&#xc3;" horiz-adv-x="1251" d="M51 0l801 1479h207l139 -1479h-143l-43 483h-559l-258 -483h-144zM512 594h494l-74 774h-4zM645 1565q25 77 88.5 137.5t136.5 60.5q54 0 142 -45q3 -1 14 -6.5l14 -7t12.5 -6t13.5 -6t12.5 -5.5t13.5 -5t12.5 -3.5t13 -3t12.5 -1.5t13 -1q38 0 68.5 30t45.5 71h78 q-36 -91 -89 -145t-138 -54q-43 0 -135 47q-92 45 -131 45q-41 0 -71.5 -29.5t-47.5 -72.5h-78z" />
<glyph unicode="&#xc4;" horiz-adv-x="1251" d="M51 0l801 1479h207l139 -1479h-143l-43 483h-559l-258 -483h-144zM512 594h494l-74 774h-4zM739 1563l43 192h136l-44 -192h-135zM1059 1563l43 192h135l-43 -192h-135z" />
<glyph unicode="&#xc5;" horiz-adv-x="1251" d="M51 0l801 1479h207l139 -1479h-143l-43 483h-559l-258 -483h-144zM512 594h494l-74 774h-4zM801 1739q20 86 93 145.5t157 59.5t131.5 -60t27.5 -145q-19 -86 -92 -145.5t-157 -59.5t-131.5 59.5t-28.5 145.5zM870 1739q-12 -57 19.5 -96t87.5 -39t104 39t60 96t-18.5 96 t-86.5 39t-105 -39.5t-61 -95.5z" />
<glyph unicode="&#xc6;" horiz-adv-x="1933" d="M37 0l1151 1479h952l-24 -111h-697l-121 -545h498l-24 -110h-498l-133 -602h735l-25 -111h-870l106 483h-534l-365 -483h-151zM643 594h469l172 770h-35z" />
<glyph unicode="&#xc7;" horiz-adv-x="1251" d="M262 739q76 346 273.5 553t463.5 207q96 0 168.5 -32.5t116.5 -91.5t67 -134.5t27 -169.5l-131 -27q-11 166 -82 255.5t-202 89.5q-86 0 -163.5 -33t-139.5 -91.5t-113.5 -140.5t-88.5 -178.5t-61 -206.5q-31 -139 -31 -254.5t32 -205t106 -139.5t186 -50q86 0 157 28 t125.5 81.5t93.5 112.5t77 139l121 -23q-91 -213 -235.5 -330.5t-364.5 -117.5l-89 -82l3 -4q28 12 67 12q74 0 107 -46.5t14 -125.5q-12 -51 -56 -89t-95 -54.5t-99 -16.5q-118 0 -188 41l45 74q85 -33 114 -33q69 0 106.5 20t47.5 64q8 40 -14.5 62t-59.5 22 q-47 0 -94 -19l-24 27l143 152q-228 29 -314.5 231t-15.5 524z" />
<glyph unicode="&#xc8;" d="M205 0l327 1479h844l-24 -111h-709l-121 -545h510l-24 -110h-510l-133 -602h747l-25 -111h-882zM780 1825h158l164 -283h-105z" />
<glyph unicode="&#xc9;" d="M205 0l327 1479h844l-24 -111h-709l-121 -545h510l-24 -110h-510l-133 -602h747l-25 -111h-882zM844 1542l291 283h157l-344 -283h-104z" />
<glyph unicode="&#xca;" d="M205 0l327 1479h844l-24 -111h-709l-121 -545h510l-24 -110h-510l-133 -602h747l-25 -111h-882zM670 1542l297 283h139l170 -283h-135l-123 207l-213 -207h-135z" />
<glyph unicode="&#xcb;" d="M205 0l327 1479h844l-24 -111h-709l-121 -545h510l-24 -110h-510l-133 -602h747l-25 -111h-882zM750 1563l43 192h135l-43 -192h-135zM1069 1563l43 192h135l-43 -192h-135z" />
<glyph unicode="&#xcc;" horiz-adv-x="569" d="M217 0l328 1479h135l-328 -1479h-135zM420 1825h158l163 -283h-104z" />
<glyph unicode="&#xcd;" horiz-adv-x="569" d="M217 0l328 1479h135l-328 -1479h-135zM483 1542l291 283h158l-344 -283h-105z" />
<glyph unicode="&#xce;" horiz-adv-x="569" d="M217 0l328 1479h135l-328 -1479h-135zM309 1542l297 283h139l170 -283h-135l-123 207l-213 -207h-135z" />
<glyph unicode="&#xcf;" horiz-adv-x="569" d="M217 0l328 1479h135l-328 -1479h-135zM389 1563l43 192h135l-43 -192h-135zM709 1563l43 192h135l-43 -192h-135z" />
<glyph unicode="&#xd0;" horiz-adv-x="1366" d="M178 713l25 110h184l145 656h418q134 0 234 -39t159 -107.5t88 -163t27.5 -202t-28.5 -228.5t-73.5 -228.5t-117 -202t-159 -162.5t-206 -107t-251.5 -39h-418l157 713h-184zM365 111h286q245 0 411 163.5t232 464.5t-27 465t-337 164h-287l-121 -545h402l-25 -110h-401z " />
<glyph unicode="&#xd1;" horiz-adv-x="1478" d="M205 0l327 1479h228l430 -1233h4l272 1233h136l-328 -1479h-139l-488 1368h-4l-303 -1368h-135zM764 1565q25 77 88.5 137.5t136.5 60.5q53 0 141 -45q35 -17 48 -23t38.5 -14t45.5 -8q38 0 68.5 30t45.5 71h78q-36 -91 -89 -145t-138 -54q-43 0 -135 47q-92 45 -131 45 q-41 0 -71.5 -29.5t-47.5 -72.5h-78z" />
<glyph unicode="&#xd2;" horiz-adv-x="1366" d="M232.5 492.5q0.5 115.5 29.5 246.5q48 219 153.5 390t261.5 270.5t337 99.5q109 0 194.5 -37t140 -105t83 -162t28 -209.5t-29.5 -246.5q-36 -164 -106.5 -303t-166 -240t-219.5 -158.5t-260 -57.5q-109 0 -194.5 37t-140 105t-83 161.5t-28 209zM397 739 q-68 -308 15 -478.5t290 -170.5t365.5 170.5t226.5 478.5t-15 479t-290 171t-365.5 -171t-226.5 -479zM834 1825h157l164 -283h-104z" />
<glyph unicode="&#xd3;" horiz-adv-x="1366" d="M232.5 492.5q0.5 115.5 29.5 246.5q48 219 153.5 390t261.5 270.5t337 99.5q109 0 194.5 -37t140 -105t83 -162t28 -209.5t-29.5 -246.5q-36 -164 -106.5 -303t-166 -240t-219.5 -158.5t-260 -57.5q-109 0 -194.5 37t-140 105t-83 161.5t-28 209zM397 739 q-68 -308 15 -478.5t290 -170.5t365.5 170.5t226.5 478.5t-15 479t-290 171t-365.5 -171t-226.5 -479zM897 1542l291 283h158l-345 -283h-104z" />
<glyph unicode="&#xd4;" horiz-adv-x="1366" d="M232.5 492.5q0.5 115.5 29.5 246.5q48 219 153.5 390t261.5 270.5t337 99.5q109 0 194.5 -37t140 -105t83 -162t28 -209.5t-29.5 -246.5q-36 -164 -106.5 -303t-166 -240t-219.5 -158.5t-260 -57.5q-109 0 -194.5 37t-140 105t-83 161.5t-28 209zM397 739 q-68 -308 15 -478.5t290 -170.5t365.5 170.5t226.5 478.5t-15 479t-290 171t-365.5 -171t-226.5 -479zM723 1542l297 283h139l170 -283h-135l-123 207l-213 -207h-135z" />
<glyph unicode="&#xd5;" horiz-adv-x="1366" d="M232.5 492.5q0.5 115.5 29.5 246.5q48 219 153.5 390t261.5 270.5t337 99.5q109 0 194.5 -37t140 -105t83 -162t28 -209.5t-29.5 -246.5q-36 -164 -106.5 -303t-166 -240t-219.5 -158.5t-260 -57.5q-109 0 -194.5 37t-140 105t-83 161.5t-28 209zM397 739 q-68 -308 15 -478.5t290 -170.5t365.5 170.5t226.5 478.5t-15 479t-290 171t-365.5 -171t-226.5 -479zM709 1565q25 77 88.5 137.5t136.5 60.5q53 0 141 -45q3 -1 14 -6.5l14 -7t12.5 -6t13.5 -6t12.5 -5.5t13.5 -5t12.5 -3.5t13 -3t12.5 -1.5t13 -1q38 0 69 30t46 71h78 q-78 -199 -228 -199q-43 0 -135 47q-92 45 -131 45q-41 0 -71.5 -29.5t-47.5 -72.5h-77z" />
<glyph unicode="&#xd6;" horiz-adv-x="1366" d="M232.5 492.5q0.5 115.5 29.5 246.5q48 219 153.5 390t261.5 270.5t337 99.5q109 0 194.5 -37t140 -105t83 -162t28 -209.5t-29.5 -246.5q-36 -164 -106.5 -303t-166 -240t-219.5 -158.5t-260 -57.5q-109 0 -194.5 37t-140 105t-83 161.5t-28 209zM397 739 q-68 -308 15 -478.5t290 -170.5t365.5 170.5t226.5 478.5t-15 479t-290 171t-365.5 -171t-226.5 -479zM803 1563l43 192h135l-43 -192h-135zM1122 1563l43 192h135l-43 -192h-135z" />
<glyph unicode="&#xd7;" horiz-adv-x="1228" d="M98 78l557 454l-354 455l94 78l355 -455l555 455l61 -78l-555 -455l352 -454l-94 -78l-354 455l-555 -455z" />
<glyph unicode="&#xd8;" horiz-adv-x="1366" d="M61 -98l242 280q-118 207 -41 557q48 219 153.5 390t261.5 270.5t337 99.5q200 0 317 -123l172 201h129l-243 -281q120 -205 41 -557q-36 -164 -106.5 -303t-166 -240t-219.5 -158.5t-260 -57.5q-199 0 -316 120l-172 -198h-129zM397 739q-61 -277 2 -444l844 979 q-84 115 -254 115q-207 0 -365.5 -171t-226.5 -479zM451 203q82 -113 251 -113q207 0 365.5 170.5t226.5 478.5q63 287 -2 443z" />
<glyph unicode="&#xd9;" horiz-adv-x="1478" d="M311 483l221 996h136l-224 -1008q-46 -206 33 -293.5t283 -87.5q203 0 320 87.5t163 293.5l223 1008h136l-222 -996q-111 -503 -645 -503q-535 0 -424 503zM879 1825h157l164 -283h-104z" />
<glyph unicode="&#xda;" horiz-adv-x="1478" d="M311 483l221 996h136l-224 -1008q-46 -206 33 -293.5t283 -87.5q203 0 320 87.5t163 293.5l223 1008h136l-222 -996q-111 -503 -645 -503q-535 0 -424 503zM942 1542l291 283h158l-344 -283h-105z" />
<glyph unicode="&#xdb;" horiz-adv-x="1478" d="M311 483l221 996h136l-224 -1008q-46 -206 33 -293.5t283 -87.5q203 0 320 87.5t163 293.5l223 1008h136l-222 -996q-111 -503 -645 -503q-535 0 -424 503zM768 1542l297 283h139l170 -283h-135l-123 207l-213 -207h-135z" />
<glyph unicode="&#xdc;" horiz-adv-x="1478" d="M311 483l221 996h136l-224 -1008q-46 -206 33 -293.5t283 -87.5q203 0 320 87.5t163 293.5l223 1008h136l-222 -996q-111 -503 -645 -503q-535 0 -424 503zM848 1563l43 192h135l-43 -192h-135zM1167 1563l43 192h136l-43 -192h-136z" />
<glyph unicode="&#xdd;" d="M369 1479h151l203 -731l551 731h151l-657 -852l-139 -627h-135l139 627zM782 1542l291 283h158l-344 -283h-105z" />
<glyph unicode="&#xde;" horiz-adv-x="1251" d="M205 0l327 1479h136l-68 -308h311q255 0 353 -108.5t55 -302.5t-189 -303t-401 -109h-311l-78 -348h-135zM442 459h312q188 0 292.5 75.5t137.5 225.5t-38 225.5t-259 75.5h-312z" />
<glyph unicode="&#xdf;" horiz-adv-x="1024" d="M156 0l241 1092q39 179 154.5 283t292.5 104q155 0 230.5 -104t41.5 -261q-24 -103 -90.5 -183t-167.5 -124q127 -42 176.5 -145t18.5 -250q-45 -200 -162.5 -316t-284.5 -116q-45 0 -96 13t-82 34l64 92q66 -41 141 -41q105 0 183 85t110 234q40 181 -34.5 260.5 t-262.5 79.5l20 99q140 3 225.5 69.5t118.5 212.5q28 125 -19.5 193.5t-170.5 68.5q-62 0 -111.5 -24t-82.5 -66t-53.5 -89t-33.5 -103l-243 -1098h-123z" />
<glyph unicode="&#xe0;" horiz-adv-x="1024" d="M111 258q13 62 40.5 111.5t57.5 85.5t91 68.5t105.5 52.5t140 45t156.5 38.5t189 40.5l16 74q24 109 -19.5 161t-176.5 52q-191 0 -353 -192l-71 49q96 126 206 183.5t242 57.5q184 0 253 -79t30 -254l-123 -557q-21 -95 -27 -195h-118l12 129q-120 -80 -211.5 -114.5 t-208.5 -34.5q-128 0 -194 74.5t-37 203.5zM233 260q-18 -86 23.5 -134t126.5 -48q87 0 196 47.5t205 128.5l78 348q-150 -31 -258.5 -63.5t-174.5 -63t-108 -67.5t-60 -70t-28 -78zM582 1466h157l164 -282h-104z" />
<glyph unicode="&#xe1;" horiz-adv-x="1024" d="M111 258q13 62 40.5 111.5t57.5 85.5t91 68.5t105.5 52.5t140 45t156.5 38.5t189 40.5l16 74q24 109 -19.5 161t-176.5 52q-191 0 -353 -192l-71 49q96 126 206 183.5t242 57.5q184 0 253 -79t30 -254l-123 -557q-21 -95 -27 -195h-118l12 129q-120 -80 -211.5 -114.5 t-208.5 -34.5q-128 0 -194 74.5t-37 203.5zM233 260q-18 -86 23.5 -134t126.5 -48q87 0 196 47.5t205 128.5l78 348q-150 -31 -258.5 -63.5t-174.5 -63t-108 -67.5t-60 -70t-28 -78zM645 1184l291 282h158l-344 -282h-105z" />
<glyph unicode="&#xe2;" horiz-adv-x="1024" d="M111 258q13 62 40.5 111.5t57.5 85.5t91 68.5t105.5 52.5t140 45t156.5 38.5t189 40.5l16 74q24 109 -19.5 161t-176.5 52q-191 0 -353 -192l-71 49q96 126 206 183.5t242 57.5q184 0 253 -79t30 -254l-123 -557q-21 -95 -27 -195h-118l12 129q-120 -80 -211.5 -114.5 t-208.5 -34.5q-128 0 -194 74.5t-37 203.5zM233 260q-18 -86 23.5 -134t126.5 -48q87 0 196 47.5t205 128.5l78 348q-150 -31 -258.5 -63.5t-174.5 -63t-108 -67.5t-60 -70t-28 -78zM471 1184l297 282h139l170 -282h-135l-121 207l-215 -207h-135z" />
<glyph unicode="&#xe3;" horiz-adv-x="1024" d="M111 258q13 62 40.5 111.5t57.5 85.5t91 68.5t105.5 52.5t140 45t156.5 38.5t189 40.5l16 74q24 109 -19.5 161t-176.5 52q-191 0 -353 -192l-71 49q96 126 206 183.5t242 57.5q184 0 253 -79t30 -254l-123 -557q-21 -95 -27 -195h-118l12 129q-120 -80 -211.5 -114.5 t-208.5 -34.5q-128 0 -194 74.5t-37 203.5zM233 260q-18 -86 23.5 -134t126.5 -48q87 0 196 47.5t205 128.5l78 348q-150 -31 -258.5 -63.5t-174.5 -63t-108 -67.5t-60 -70t-28 -78zM459 1206q24 77 87 138t136 61q57 0 141 -45q3 -1 14 -6.5l14 -7t12.5 -6t13.5 -6 t12.5 -5.5t13.5 -5t12.5 -3.5t13 -3t12.5 -1.5t13 -1q38 0 69 29.5t46 70.5h78q-36 -91 -88.5 -144.5t-136.5 -53.5q-46 0 -138 47q-92 45 -129 45q-41 0 -72 -30t-46 -73h-78z" />
<glyph unicode="&#xe4;" horiz-adv-x="1024" d="M111 258q13 62 40.5 111.5t57.5 85.5t91 68.5t105.5 52.5t140 45t156.5 38.5t189 40.5l16 74q24 109 -19.5 161t-176.5 52q-191 0 -353 -192l-71 49q96 126 206 183.5t242 57.5q184 0 253 -79t30 -254l-123 -557q-21 -95 -27 -195h-118l12 129q-120 -80 -211.5 -114.5 t-208.5 -34.5q-128 0 -194 74.5t-37 203.5zM233 260q-18 -86 23.5 -134t126.5 -48q87 0 196 47.5t205 128.5l78 348q-150 -31 -258.5 -63.5t-174.5 -63t-108 -67.5t-60 -70t-28 -78zM551 1204l43 193h135l-43 -193h-135zM870 1204l43 193h136l-43 -193h-136z" />
<glyph unicode="&#xe5;" horiz-adv-x="1024" d="M111 258q13 62 40.5 111.5t57.5 85.5t91 68.5t105.5 52.5t140 45t156.5 38.5t189 40.5l16 74q24 109 -19.5 161t-176.5 52q-191 0 -353 -192l-71 49q96 126 206 183.5t242 57.5q184 0 253 -79t30 -254l-123 -557q-21 -95 -27 -195h-118l12 129q-120 -80 -211.5 -114.5 t-208.5 -34.5q-128 0 -194 74.5t-37 203.5zM233 260q-18 -86 23.5 -134t126.5 -48q87 0 196 47.5t205 128.5l78 348q-150 -31 -258.5 -63.5t-174.5 -63t-108 -67.5t-60 -70t-28 -78zM612 1380q20 86 94 145.5t158 59.5t131 -60t27 -145q-19 -85 -92.5 -144.5t-157.5 -59.5 t-131.5 59t-28.5 145zM682 1380q-12 -57 19 -96t87 -39t104 39t60 96q13 57 -17.5 96.5t-86.5 39.5t-104.5 -39.5t-61.5 -96.5z" />
<glyph unicode="&#xe6;" horiz-adv-x="1593" d="M111 258q15 70 42 124t83 96.5t98 69t142 57t155.5 44.5t195.5 46q4 1 7 1.5t7 1.5t7 2l16 74q12 41 6 79.5t-24 68t-59.5 47.5t-100.5 18q-110 0 -187.5 -49t-136.5 -147l-79 53q82 127 182.5 184t232.5 57q242 0 287 -174q157 174 361 174q105 0 175 -40.5t99.5 -114 t31.5 -176t-28 -226.5h-692q-21 -95 -22.5 -173t17 -142t68.5 -99.5t129 -35.5q103 0 178.5 45t182.5 170l88 -53q-119 -144 -224 -202t-255 -58q-105 0 -181 47t-120 133q-102 -99 -212.5 -139.5t-238.5 -40.5t-194 74.5t-37 203.5zM233 260q-18 -86 23.5 -134t126.5 -48 q90 0 194 48.5t171 127.5l77 348q-173 -39 -287 -78t-176 -83t-89 -84.5t-40 -96.5zM954 627h570q20 173 -27 266.5t-176 93.5q-132 0 -227.5 -100.5t-139.5 -259.5z" />
<glyph unicode="&#xe7;" horiz-adv-x="1024" d="M193 532q59 269 213.5 411t365.5 142q146 0 226.5 -75.5t99.5 -212.5l-119 -31q-24 104 -76.5 162.5t-150.5 58.5q-159 0 -272 -109t-165 -346q-46 -207 15 -330.5t219 -123.5q107 0 190.5 54t178.5 167l88 -47q-217 -269 -471 -272l-89 -82l3 -4q28 12 67 12 q74 0 107 -46.5t14 -125.5q-12 -51 -56 -89t-95 -54.5t-99 -16.5q-118 0 -188 41l45 74q85 -33 114 -33q69 0 106.5 20t47.5 64q8 40 -14.5 62t-59.5 22q-47 0 -94 -19l-25 27l144 152q-183 23 -252.5 172t-17.5 376z" />
<glyph unicode="&#xe8;" horiz-adv-x="1024" d="M193 532q54 249 206 401t353 152q210 0 285 -150.5t18 -406.5h-742q-23 -91 -18.5 -172.5t29 -143t84 -98t147.5 -36.5q103 0 178 44.5t182 170.5l89 -53q-119 -143 -224.5 -201.5t-255.5 -58.5q-215 0 -304 138.5t-27 413.5zM336 627h618q19 170 -36 264.5t-191 95.5 q-77 1 -147 -35t-118 -92t-80.5 -116.5t-45.5 -116.5zM582 1466h157l164 -282h-104z" />
<glyph unicode="&#xe9;" horiz-adv-x="1024" d="M193 532q54 249 206 401t353 152q210 0 285 -150.5t18 -406.5h-742q-23 -91 -18.5 -172.5t29 -143t84 -98t147.5 -36.5q103 0 178 44.5t182 170.5l89 -53q-119 -143 -224.5 -201.5t-255.5 -58.5q-215 0 -304 138.5t-27 413.5zM336 627h618q19 170 -36 264.5t-191 95.5 q-77 1 -147 -35t-118 -92t-80.5 -116.5t-45.5 -116.5zM645 1184l291 282h158l-344 -282h-105z" />
<glyph unicode="&#xea;" horiz-adv-x="1024" d="M193 532q54 249 206 401t353 152q210 0 285 -150.5t18 -406.5h-742q-23 -91 -18.5 -172.5t29 -143t84 -98t147.5 -36.5q103 0 178 44.5t182 170.5l89 -53q-119 -143 -224.5 -201.5t-255.5 -58.5q-215 0 -304 138.5t-27 413.5zM336 627h618q19 170 -36 264.5t-191 95.5 q-77 1 -147 -35t-118 -92t-80.5 -116.5t-45.5 -116.5zM471 1184l297 282h139l170 -282h-135l-121 207l-215 -207h-135z" />
<glyph unicode="&#xeb;" horiz-adv-x="1024" d="M193 532q54 249 206 401t353 152q210 0 285 -150.5t18 -406.5h-742q-23 -91 -18.5 -172.5t29 -143t84 -98t147.5 -36.5q103 0 178 44.5t182 170.5l89 -53q-119 -143 -224.5 -201.5t-255.5 -58.5q-215 0 -304 138.5t-27 413.5zM336 627h618q19 170 -36 264.5t-191 95.5 q-77 1 -147 -35t-118 -92t-80.5 -116.5t-45.5 -116.5zM551 1204l43 193h135l-43 -193h-135zM870 1204l43 193h136l-43 -193h-136z" />
<glyph unicode="&#xec;" horiz-adv-x="454" d="M166 0l235 1065h123l-235 -1065h-123zM297 1466h158l163 -282h-104z" />
<glyph unicode="&#xed;" horiz-adv-x="454" d="M166 0l235 1065h123l-235 -1065h-123zM360 1184l291 282h158l-344 -282h-105z" />
<glyph unicode="&#xee;" horiz-adv-x="454" d="M166 0l235 1065h123l-235 -1065h-123zM186 1184l297 282h140l170 -282h-136l-120 207l-215 -207h-136z" />
<glyph unicode="&#xef;" horiz-adv-x="454" d="M166 0l235 1065h123l-235 -1065h-123zM266 1204l43 193h135l-43 -193h-135zM586 1204l43 193h135l-43 -193h-135z" />
<glyph unicode="&#xf0;" horiz-adv-x="1024" d="M168 363.5q4 78.5 25 168.5q20 90 50.5 168.5t78 150.5t108 123t143 81t179.5 30q121 0 194 -45l4 4q-29 103 -94 199l-233 -108l-39 82l213 100q-54 60 -125 108l121 54q75 -59 118 -109l234 109l39 -82l-213 -101q77 -108 109 -242t26 -256.5t-37 -265.5 q-21 -91 -52 -169t-79 -150t-108 -122.5t-142.5 -80.5t-179.5 -30t-166.5 30t-107.5 81t-54 122.5t-12 150zM315 532q-104 -454 213 -454q314 0 418 454q99 455 -215 455q-317 0 -416 -455z" />
<glyph unicode="&#xf1;" d="M168 0l235 1065h123l-37 -168q116 98 206 143t200 45q317 0 238 -358l-162 -727h-123l158 715q31 138 -3 205t-153 67q-22 0 -41.5 -2t-42 -10t-37.5 -12.5t-41 -20.5t-37.5 -22t-43.5 -29.5t-42 -30.5t-49.5 -37t-50.5 -39l-174 -784h-123zM502 1206q24 77 87 138 t136 61q57 0 141 -45q3 -1 14 -6.5l14 -7t12.5 -6t13.5 -6t12.5 -5.5t13.5 -5t12.5 -3.5t13 -3t12.5 -1.5t13 -1q38 0 69 29.5t46 70.5h78q-36 -91 -88.5 -144.5t-136.5 -53.5q-46 0 -138 47q-92 45 -129 45q-41 0 -72 -30t-46 -73h-78z" />
<glyph unicode="&#xf2;" horiz-adv-x="1024" d="M168 363.5q4 78.5 25 168.5q20 90 50.5 168.5t78 150.5t108 123t143 81t179.5 30t166.5 -30t107 -81t54 -123t13 -150.5t-23.5 -168.5q-21 -91 -52 -169t-79 -150t-108 -122.5t-142.5 -80.5t-179.5 -30t-166.5 30t-107.5 81t-54 122.5t-12 150zM315 532 q-104 -454 213 -454q314 0 418 454q99 455 -215 455q-317 0 -416 -455zM571 1466h158l164 -282h-105z" />
<glyph unicode="&#xf3;" horiz-adv-x="1024" d="M168 363.5q4 78.5 25 168.5q20 90 50.5 168.5t78 150.5t108 123t143 81t179.5 30t166.5 -30t107 -81t54 -123t13 -150.5t-23.5 -168.5q-21 -91 -52 -169t-79 -150t-108 -122.5t-142.5 -80.5t-179.5 -30t-166.5 30t-107.5 81t-54 122.5t-12 150zM315 532 q-104 -454 213 -454q314 0 418 454q99 455 -215 455q-317 0 -416 -455zM635 1184l291 282h157l-344 -282h-104z" />
<glyph unicode="&#xf4;" horiz-adv-x="1024" d="M168 363.5q4 78.5 25 168.5q20 90 50.5 168.5t78 150.5t108 123t143 81t179.5 30t166.5 -30t107 -81t54 -123t13 -150.5t-23.5 -168.5q-21 -91 -52 -169t-79 -150t-108 -122.5t-142.5 -80.5t-179.5 -30t-166.5 30t-107.5 81t-54 122.5t-12 150zM315 532 q-104 -454 213 -454q314 0 418 454q99 455 -215 455q-317 0 -416 -455zM461 1184l297 282h139l170 -282h-135l-121 207l-215 -207h-135z" />
<glyph unicode="&#xf5;" horiz-adv-x="1024" d="M168 363.5q4 78.5 25 168.5q20 90 50.5 168.5t78 150.5t108 123t143 81t179.5 30t166.5 -30t107 -81t54 -123t13 -150.5t-23.5 -168.5q-21 -91 -52 -169t-79 -150t-108 -122.5t-142.5 -80.5t-179.5 -30t-166.5 30t-107.5 81t-54 122.5t-12 150zM315 532 q-104 -454 213 -454q314 0 418 454q99 455 -215 455q-317 0 -416 -455zM449 1206q24 77 87 138t136 61q57 0 141 -45q3 -1 14 -6.5l14 -7t12.5 -6t13.5 -6t12.5 -5.5t13.5 -5t12.5 -3.5t13 -3t12.5 -1.5t13 -1q38 0 69 29.5t46 70.5h78q-36 -91 -88.5 -144.5t-137.5 -53.5 q-45 0 -137 47q-92 45 -129 45q-41 0 -72.5 -30t-46.5 -73h-77z" />
<glyph unicode="&#xf6;" horiz-adv-x="1024" d="M168 363.5q4 78.5 25 168.5q20 90 50.5 168.5t78 150.5t108 123t143 81t179.5 30t166.5 -30t107 -81t54 -123t13 -150.5t-23.5 -168.5q-21 -91 -52 -169t-79 -150t-108 -122.5t-142.5 -80.5t-179.5 -30t-166.5 30t-107.5 81t-54 122.5t-12 150zM315 532 q-104 -454 213 -454q314 0 418 454q99 455 -215 455q-317 0 -416 -455zM541 1204l43 193h135l-43 -193h-135zM860 1204l43 193h135l-43 -193h-135z" />
<glyph unicode="&#xf7;" horiz-adv-x="1228" d="M188 477l25 111h1065l-25 -111h-1065zM518 88q9 47 51.5 82t89.5 35t74.5 -35t18.5 -82q-10 -47 -53.5 -82t-90.5 -35t-74 35t-16 82zM715 977q11 47 52.5 82t88.5 35t74.5 -35t17.5 -82t-53 -82t-90 -35t-74 35t-16 82z" />
<glyph unicode="&#xf8;" horiz-adv-x="1024" d="M-8 -164l229 275q-92 141 -28 421q20 90 50.5 168.5t78 150.5t108 123t143 81t179.5 30q148 0 227 -67l176 211h117l-232 -277q90 -139 29 -420q-21 -91 -52 -169t-79 -150t-108 -122.5t-142.5 -80.5t-179.5 -30q-149 0 -225 67l-177 -211h-114zM309 217l594 709 q-58 61 -172 61q-317 0 -416 -455q-47 -200 -6 -315zM358 137q59 -59 170 -59q314 0 418 454q45 210 6 314z" />
<glyph unicode="&#xf9;" d="M244 338l159 727h123l-157 -715q-31 -138 3 -205t152 -67q22 0 41.5 2t42 10t37.5 12.5t41 20.5t37.5 22t43.5 29.5t42 30.5t49.5 37t50.5 39l174 784h123l-235 -1065h-123l37 168q-116 -98 -206 -143t-200 -45q-162 0 -218 90.5t-17 267.5zM639 1466h158l164 -282h-105z " />
<glyph unicode="&#xfa;" d="M244 338l159 727h123l-157 -715q-31 -138 3 -205t152 -67q22 0 41.5 2t42 10t37.5 12.5t41 20.5t37.5 22t43.5 29.5t42 30.5t49.5 37t50.5 39l174 784h123l-235 -1065h-123l37 168q-116 -98 -206 -143t-200 -45q-162 0 -218 90.5t-17 267.5zM702 1184l291 282h158 l-344 -282h-105z" />
<glyph unicode="&#xfb;" d="M244 338l159 727h123l-157 -715q-31 -138 3 -205t152 -67q22 0 41.5 2t42 10t37.5 12.5t41 20.5t37.5 22t43.5 29.5t42 30.5t49.5 37t50.5 39l174 784h123l-235 -1065h-123l37 168q-116 -98 -206 -143t-200 -45q-162 0 -218 90.5t-17 267.5zM528 1184l297 282h140 l170 -282h-136l-120 207l-215 -207h-136z" />
<glyph unicode="&#xfc;" d="M244 338l159 727h123l-157 -715q-31 -138 3 -205t152 -67q22 0 41.5 2t42 10t37.5 12.5t41 20.5t37.5 22t43.5 29.5t42 30.5t49.5 37t50.5 39l174 784h123l-235 -1065h-123l37 168q-116 -98 -206 -143t-200 -45q-162 0 -218 90.5t-17 267.5zM608 1204l43 193h135 l-43 -193h-135zM928 1204l43 193h135l-43 -193h-135z" />
<glyph unicode="&#xfd;" horiz-adv-x="909" d="M-47 -365l20 101q6 -1 49.5 -8t71.5 -7q71 0 149.5 70.5t155.5 224.5l-139 1049h135l103 -866h4l487 866h131l-649 -1141q-63 -110 -117 -172.5t-125 -95.5t-166 -33q-69 0 -110 12zM588 1184l291 282h157l-344 -282h-104z" />
<glyph unicode="&#xfe;" d="M104 -377l412 1856h123l-127 -578h4q166 184 361 184q81 0 144 -30t102 -82.5t59.5 -123t20 -153t-20.5 -170.5q-60 -270 -204 -408t-337 -138q-105 0 -171 36.5t-128 122.5l-115 -516h-123zM371 268q22 -63 98.5 -126.5t159.5 -63.5q163 0 273.5 123t160.5 348 q15 68 17.5 130.5t-10 119t-39 98t-73 66t-108.5 24.5q-49 0 -93.5 -13t-93 -44t-82 -58t-94.5 -79z" />
<glyph unicode="&#xff;" horiz-adv-x="909" d="M-47 -365l20 101q6 -1 49.5 -8t71.5 -7q71 0 149.5 70.5t155.5 224.5l-139 1049h135l103 -866h4l487 866h131l-649 -1141q-63 -110 -117 -172.5t-125 -95.5t-166 -33q-69 0 -110 12zM494 1204l43 193h135l-43 -193h-135zM813 1204l43 193h135l-43 -193h-135z" />
<glyph unicode="&#x152;" horiz-adv-x="2048" d="M229 487.5q2 114.5 33 251.5q35 158 107.5 294.5t176.5 241t244.5 164.5t299.5 60q84 0 194 -10q170 -10 174 -10h797l-25 -111h-698l-121 -545h500l-25 -110h-500l-133 -602h738l-25 -111h-827q-92 0 -205 -10q-170 -10 -180 -10q-139 0 -242 36t-165 101.5t-91 160.5 t-27 209.5zM397 739q-71 -320 30.5 -484.5t395.5 -164.5q291 0 336 205l197 889q22 100 -39 152.5t-207 52.5q-280 0 -463 -175t-250 -475z" />
<glyph unicode="&#x153;" horiz-adv-x="1705" d="M168 363.5q4 78.5 25 168.5q25 114 68 209t108 174.5t161 124.5t213 45q131 0 206 -63t95 -168q61 97 163.5 164t240.5 67q104 0 175 -40.5t103.5 -114t36.5 -176t-26 -226.5h-699q-21 -95 -22.5 -173t17.5 -142t70.5 -99.5t133.5 -35.5q103 0 178 44.5t182 170.5l89 -53 q-119 -143 -224.5 -201.5t-255.5 -58.5q-127 0 -202 58t-105 175q-153 -233 -399 -233q-94 0 -162 30t-105.5 81t-53 122.5t-11.5 150zM313.5 196.5q50.5 -118.5 206.5 -118.5q147 0 247.5 117t150.5 337q49 217 0.5 336t-195.5 119q-156 0 -258 -117t-150 -338 q-52 -217 -1.5 -335.5zM1061 627h575q41 360 -211 360q-139 0 -229 -98.5t-135 -261.5z" />
<glyph unicode="&#x178;" d="M369 1479h151l203 -731l551 731h151l-657 -852l-139 -627h-135l139 627zM688 1563l43 192h135l-43 -192h-135zM1008 1563l43 192h135l-43 -192h-135z" />
<glyph unicode="&#x2c6;" horiz-adv-x="454" d="M186 1184l297 282h140l170 -282h-136l-120 207l-215 -207h-136z" />
<glyph unicode="&#x2dc;" horiz-adv-x="454" d="M174 1206q24 77 87 138t136 61q58 0 142 -45q3 -1 14 -6.5l14 -7t12.5 -6t13.5 -6t12.5 -5.5t13.5 -5t12.5 -3.5t13 -3t12.5 -1.5t13 -1q38 0 68.5 29.5t45.5 70.5h78q-36 -91 -88.5 -144.5t-136.5 -53.5q-45 0 -137 47q-92 45 -129 45q-41 0 -72.5 -30t-46.5 -73h-78z " />
<glyph unicode="&#x2000;" horiz-adv-x="972" />
<glyph unicode="&#x2001;" horiz-adv-x="1944" />
<glyph unicode="&#x2002;" horiz-adv-x="972" />
<glyph unicode="&#x2003;" horiz-adv-x="1944" />
<glyph unicode="&#x2004;" horiz-adv-x="648" />
<glyph unicode="&#x2005;" horiz-adv-x="486" />
<glyph unicode="&#x2006;" horiz-adv-x="324" />
<glyph unicode="&#x2007;" horiz-adv-x="324" />
<glyph unicode="&#x2008;" horiz-adv-x="243" />
<glyph unicode="&#x2009;" horiz-adv-x="388" />
<glyph unicode="&#x200a;" horiz-adv-x="108" />
<glyph unicode="&#x2010;" horiz-adv-x="681" d="M193 477l24 111h510l-25 -111h-509z" />
<glyph unicode="&#x2011;" horiz-adv-x="681" d="M193 477l24 111h510l-25 -111h-509z" />
<glyph unicode="&#x2012;" horiz-adv-x="681" d="M193 477l24 111h510l-25 -111h-509z" />
<glyph unicode="&#x2013;" horiz-adv-x="1024" d="M109 487l20 91h1024l-20 -91h-1024z" />
<glyph unicode="&#x2014;" horiz-adv-x="2048" d="M109 487l20 91h2048l-20 -91h-2048z" />
<glyph unicode="&#x2018;" horiz-adv-x="454" d="M346 1008l41 184l197 307h80l-187 -307h86l-41 -184h-176z" />
<glyph unicode="&#x2019;" horiz-adv-x="454" d="M342 987l186 307h-86l41 185h176l-41 -185l-196 -307h-80z" />
<glyph unicode="&#x201a;" horiz-adv-x="454" d="M55 -307l187 307h-86l41 184h176l-41 -184l-197 -307h-80z" />
<glyph unicode="&#x201c;" horiz-adv-x="909" d="M422 1008l41 184l196 307h80l-186 -307h86l-41 -184h-176zM764 1008l41 184l196 307h80l-186 -307h86l-41 -184h-176z" />
<glyph unicode="&#x201d;" horiz-adv-x="909" d="M379 987l186 307h-86l41 185h176l-41 -185l-196 -307h-80zM721 987l186 307h-86l41 185h176l-41 -185l-196 -307h-80z" />
<glyph unicode="&#x201e;" horiz-adv-x="909" d="M92 -307l187 307h-86l40 184h177l-41 -184l-197 -307h-80zM434 -307l187 307h-86l40 184h177l-41 -184l-197 -307h-80z" />
<glyph unicode="&#x2022;" horiz-adv-x="1024" d="M305 739q34 154 165.5 261.5t285.5 107.5t238 -107.5t50 -261.5t-166 -262t-286 -108t-237.5 108t-49.5 262z" />
<glyph unicode="&#x2026;" horiz-adv-x="2048" d="M254 0l41 184h176l-41 -184h-176zM936 0l41 184h176l-41 -184h-176zM1618 0l41 184h176l-41 -184h-176z" />
<glyph unicode="&#x202f;" horiz-adv-x="388" />
<glyph unicode="&#x2039;" horiz-adv-x="681" d="M250 537l317 311h135l-323 -311l182 -320h-135z" />
<glyph unicode="&#x203a;" horiz-adv-x="681" d="M215 217l324 311l-183 320h136l176 -320l-318 -311h-135z" />
<glyph unicode="&#x205f;" horiz-adv-x="486" />
<glyph unicode="&#x20ac;" d="M145 504l54 98h96q2 16 22 121q8 37 21 80h-127l57 98h99q37 126 97.5 233t140.5 189.5t183 129t216 46.5q131 0 228.5 -59.5t137.5 -173.5l-82 -150q-28 115 -111 194t-202 79q-88 0 -168 -43t-139 -115t-101.5 -156t-66.5 -174h667l-55 -98h-639q-12 -37 -18 -76 q-3 -13 -25 -125h567l-53 -98h-522q-8 -82 4 -155t43.5 -131.5t89.5 -93t137 -34.5q225 0 414 221l-35 -157q-85 -85 -191 -129.5t-214 -44.5q-91 0 -162 29.5t-115 79t-71 118t-34.5 142.5t-0.5 155h-142z" />
<glyph unicode="&#x2122;" horiz-adv-x="2027" d="M418 1389l20 90h656l-21 -90h-272l-166 -754h-103l166 754h-280zM1059 635l186 844h174l123 -672l414 672h174l-186 -844h-103l166 754h-4l-471 -754h-62l-139 754h-4l-166 -754h-102z" />
<glyph unicode="&#xe000;" horiz-adv-x="1064" d="M0 0v1065h1065v-1065h-1065z" />
</font>
</defs>
</svg>
